<svg xmlns="http://www.w3.org/2000/svg" version="1.1" x="0px" y="0px" width="42px" height="31px" viewBox="-391.5 573 42 31" enable-background="new -391.5 573 42 31" xml:space="preserve"><path fill="#364b60" d="M-350.491 587.388c-0.002-0.006-0.004-0.011-0.007-0.017 -0.026-0.071-0.055-0.142-0.085-0.209 -0.002-0.005-0.005-0.011-0.007-0.016 -0.526-1.148-1.687-1.947-3.034-1.947 -1.841 0-3.334 1.493-3.334 3.34 0 0.394 0.067 0.768 0.192 1.117 0.036 0.106 0.077 0.202 0.125 0.303 0.228 0.595 0.354 1.248 0.354 1.926 0 3-2.432 5.433-5.431 5.432 -3.001 0-5.433-2.432-5.433-5.433 0-3.229-1.266-6.163-3.333-8.333 -2.204-2.316-5.319-3.76-8.772-3.76 -1.997 0-3.879 0.482-5.539 1.337v-4.646 -0.496h-0.016c-0.166-1.66-1.567-2.956-3.271-2.956 -1.703 0-3.104 1.296-3.27 2.956h-0.008v0.104c-0.005 0.075-0.009 0.151-0.009 0.227 0 0.076 0.004 0.153 0.01 0.227v15.336c0 6.679 5.421 12.091 12.1 12.091 3.453 0 6.568-1.444 8.772-3.761 2.202 2.313 5.316 3.762 8.761 3.761 6.68 0 12.093-5.414 12.093-12.094 0.003-1.581-0.298-3.097-0.855-4.489H-350.491L-350.491 587.388zM-379.259 597.312c-3.002 0-5.437-2.431-5.437-5.432 0-3 2.435-5.432 5.437-5.432 3.003 0 5.441 2.428 5.441 5.432 0 3.005-2.438 5.431-5.436 5.432H-379.259z"/></svg>
